{"title":"War.of.the.Arrows.2011.BRRIP.720P.H264-ZEKTORM","uid":7265563,"size":3740891051,"categoryP":"video","categoryS":"hd___movies","magnet":"?xt=urn:btih:8c2f08aba64c633bce117fee6bf75b714ec34ebe&amp;dn=War.of.the.Arrows.2011.BRRIP.720P.H264-ZEKTORM&amp;tr=udp%3A%2F%2Ftracker.openbittorrent.com%3A80&amp;tr=udp%3A%2F%2Fopen.demonii.com%3A1337&amp;tr=udp%3A%2F%2Ftracker.coppersurfer.tk%3A6969&amp;tr=udp%3A%2F%2Fexodus.desync.com%3A6969","seeders":4,"leechers":0,"uploader":"blowley","files":4,"time":1336871641,"description":"Title                            : Choi-jong-byeong-gi Hwal\nAlso Known As                    : War of the Arrows\nYear                             : 2011\nGenre                            : Action | History\niMDB URL                         : http://www.imdb.com/title/tt2025526/\n\nComplete name                    : War.of.the.Arrows.2011.BRRIP.720P.H264-ZEKTORM.mp4\nFormat                           : MPEG-4\nFormat profile                   : Base Media\nCodec ID                         : isom\nFile size                        : 3.48 GiB\nDuration                         : 2h 2mn\nOverall bit rate                 : 4080 Kbps\nSubtitles                        : English (Format: srt)\n\nVideo\nID                               : 1\nFormat                           : AVC\nFormat/Info                      : Advanced Video Codec\nFormat profile                   : &lt;a class=&quot;__cf_email__&quot; href=&quot;/cdn-cgi/l/email-protection&quot; data-cfemail=&quot;b4fcddd3dcf4f8809a84&quot;&gt;[email&amp;#160;protected]&lt;/a&gt;&lt;script cf-hash='f9e31' type=&quot;text/javascript&quot;&gt;\n/* &lt;![CDATA[ */!function(){try{var t=&quot;currentScript&quot;in document?document.currentScript:function(){for(var t=document.getElementsByTagName(&quot;script&quot;),e=t.length;e--;)if(t[e].getAttribute(&quot;cf-hash&quot;))return t[e]}();if(t&amp;&amp;t.previousSibling){var e,r,n,i,c=t.previousSibling,a=c.getAttribute(&quot;data-cfemail&quot;);if(a){for(e=&quot;&quot;,r=parseInt(a.substr(0,2),16),n=2;a.length-n;n+=2)i=parseInt(a.substr(n,2),16)^r,e+=String.fromCharCode(i);e=document.createTextNode(e),c.parentNode.replaceChild(e,c)}}}catch(u){}}();/* ]]&gt; */&lt;/script&gt;\nFormat settings, CABAC           : Yes\nFormat settings, ReFrames        : 12 frames\nCodec ID                         : avc1\nCodec ID/Info                    : Advanced Video Coding\nDuration                         : 2h 2mn\nBit rate mode                    : Variable\nBit rate                         : 3631 Kbps\nWidth                            : 1280 pixels\nHeight                           : 544 pixels\nDisplay aspect ratio             : 2.35\nFrame rate mode                  : Constant\nFrame rate                       : 23.976 fps\nResolution                       : 24 bits\nColorimetry                      : 4:2:0\nScan type                        : Progressive\nBits/(Pixel*Frame)               : 0.217\nStream size                      : 3.10 GiB (89%)\nTitle                            : Video\nWriting library                  : x264\n\nAudio\nID                               : 2\nFormat                           : AAC\nFormat/Info                      : Advanced Audio Codec\nFormat version                   : Version 4\nFormat profile                   : LC\nFormat settings, SBR             : No\nCodec ID                         : 40\nDuration                         : 2h 2mn\nBit rate mode                    : Variable\nBit rate                         : 445 Kbps\nMaximum bit rate                 : 720 Kbps\nChannel(s)                       : 6 channels\nChannel positions                : Front: L C R, Rear: L R, LFE\nSampling rate                    : 48.0 KHz\nResolution                       : 16 bits\nStream size                      : 389 MiB (11%)\nLanguage                         : Korean\n\n\nScreenshots:\n\n[img]http://img685.imageshack.us/img685/9776/snapwota1.png[/img]\n\n[img]http://img198.imageshack.us/img198/4821/snapwota2.png[/img]\n","torrent":{"xt":"urn:btih:8c2f08aba64c633bce117fee6bf75b714ec34ebe","amp;dn":"War.of.the.Arrows.2011.BRRIP.720P.H264-ZEKTORM","amp;tr":["udp%3A%2F%2Ftracker.openbittorrent.com%3A80","udp%3A%2F%2Fopen.demonii.com%3A1337","udp%3A%2F%2Ftracker.coppersurfer.tk%3A6969","udp%3A%2F%2Fexodus.desync.com%3A6969"],"infoHash":"8c2f08aba64c633bce117fee6bf75b714ec34ebe","infoHashBuffer":{"type":"Buffer","data":[140,47,8,171,166,76,99,59,206,17,127,238,107,247,91,113,78,195,78,190]},"announce":[],"urlList":[]}}